<?xml version="1.0" encoding="UTF-8"?><svg id="Warstwa_2" xmlns="http://www.w3.org/2000/svg" viewBox="0 0 458.06 59.75"><defs><style>.cls-1{fill:#294d83;}.cls-2{fill:#c8542f;}</style></defs><g id="Warstwa_1-2"><g><g><path class="cls-1" d="m0,8.5h35.62v9.26h-11.95v28.25h-11.72v-28.25H0v-9.26Z"/><path class="cls-1" d="m38.37,8.5h12.25l8.54,27,8.43-27h11.89l-14.08,37.52h-12.7l-14.32-37.52Z"/><path class="cls-1" d="m79.48,28.31h15.32v8.06h-15.32v-8.06Z"/><path class="cls-1" d="m100.98,8.5h31.41v8.01h-19.66v5.96h18.24v7.65h-18.24v7.4h20.23v8.5h-31.98V8.5Z"/><path class="cls-1" d="m165.12,8.5h11.69v22.35c0,2.22-.35,4.31-1.05,6.28s-1.79,3.69-3.29,5.17-3.06,2.51-4.7,3.11c-2.28.83-5.01,1.25-8.2,1.25-1.85,0-3.86-.13-6.04-.38-2.18-.26-4.01-.76-5.47-1.52-1.47-.76-2.81-1.84-4.02-3.24-1.22-1.4-2.05-2.84-2.5-4.32-.72-2.39-1.09-4.5-1.09-6.34V8.5h11.69v22.88c0,2.05.57,3.64,1.72,4.79,1.15,1.15,2.74,1.73,4.77,1.73s3.6-.57,4.75-1.7c1.15-1.13,1.72-2.74,1.72-4.82V8.5Z"/><path class="cls-1" d="m185.89,46.02V8.5h19.53c3.62,0,6.39.31,8.31.92,1.91.61,3.46,1.75,4.63,3.42,1.17,1.66,1.76,3.69,1.76,6.08,0,2.08-.45,3.88-1.35,5.39-.9,1.51-2.13,2.73-3.7,3.67-1,.6-2.37,1.09-4.12,1.48,1.4.46,2.41.92,3.05,1.38.43.31,1.06.97,1.87,1.97s1.37,1.78,1.64,2.33l5.68,10.87h-13.24l-6.26-11.47c-.79-1.48-1.5-2.45-2.12-2.89-.84-.58-1.8-.87-2.87-.87h-1.03v15.23h-11.77Zm11.77-22.32h4.94c.53,0,1.57-.17,3.1-.51.78-.15,1.41-.55,1.9-1.18.49-.63.74-1.36.74-2.18,0-1.21-.39-2.14-1.16-2.79-.78-.65-2.23-.97-4.37-.97h-5.15v7.63Z"/><path class="cls-1" d="m225.73,27.29c0-6.12,1.72-10.89,5.17-14.31,3.45-3.41,8.25-5.12,14.41-5.12s11.18,1.68,14.59,5.03c3.41,3.35,5.12,8.05,5.12,14.09,0,4.39-.75,7.98-2.24,10.79-1.49,2.81-3.65,4.99-6.46,6.55-2.82,1.56-6.34,2.34-10.54,2.34s-7.82-.67-10.62-2.02c-2.8-1.35-5.07-3.48-6.82-6.4-1.74-2.92-2.61-6.57-2.61-10.95Zm11.72.05c0,3.79.71,6.51,2.13,8.16,1.42,1.66,3.36,2.48,5.81,2.48s4.47-.81,5.85-2.43c1.38-1.62,2.07-4.53,2.07-8.73,0-3.53-.72-6.11-2.16-7.74-1.44-1.63-3.39-2.44-5.86-2.44s-4.26.83-5.69,2.48c-1.43,1.65-2.15,4.39-2.15,8.21Z"/><path class="cls-1" d="m269.8,28.31h15.31v8.06h-15.31v-8.06Z"/><path class="cls-1" d="m289.28,33.61l11.15-.69c.24,1.79.73,3.16,1.47,4.09,1.21,1.52,2.93,2.28,5.18,2.28,1.67,0,2.96-.39,3.87-1.16.91-.78,1.36-1.68,1.36-2.7s-.43-1.84-1.29-2.61c-.86-.77-2.86-1.49-6-2.18-5.14-1.14-8.81-2.66-11-4.56-2.21-1.89-3.31-4.31-3.31-7.24,0-1.93.56-3.75,1.69-5.46s2.83-3.06,5.1-4.04c2.27-.98,5.38-1.47,9.33-1.47,4.85,0,8.54.89,11.09,2.67,2.54,1.78,4.06,4.62,4.54,8.51l-11.05.64c-.29-1.69-.91-2.92-1.85-3.69-.94-.77-2.24-1.15-3.89-1.15-1.36,0-2.39.29-3.08.86-.69.57-1.04,1.27-1.04,2.09,0,.6.29,1.14.85,1.61.55.49,1.86.96,3.93,1.38,5.12,1.09,8.79,2.2,11.01,3.31s3.83,2.5,4.84,4.16,1.51,3.51,1.51,5.55c0,2.41-.67,4.62-2.02,6.65-1.34,2.03-3.22,3.57-5.64,4.62-2.42,1.05-5.46,1.57-9.13,1.57-6.45,0-10.92-1.23-13.4-3.69-2.48-2.46-3.89-5.58-4.22-9.37Z"/><path class="cls-1" d="m354.07,39.83h-13.31l-1.85,6.19h-11.97l14.25-37.52h12.78l14.25,37.52h-12.27l-1.9-6.19Zm-2.43-8.11l-4.19-13.49-4.14,13.49h8.33Z"/><path class="cls-1" d="m366.82,8.5h35.63v9.26h-11.95v28.25h-11.72v-28.25h-11.95v-9.26Z"/></g><g><path class="cls-1" d="m418.26,55.78c-5.58-3.22-8.56-9.61-8.79-17.14-.24,8.33,2.76,15.52,8.79,19,10.34,5.97,25.67-1.2,34.22-16.03,3.94-6.83,5.76-14.09,5.56-20.51-.17,5.95-1.99,12.47-5.56,18.65-8.56,14.82-23.88,22-34.22,16.03Z"/><path class="cls-2" d="m449.25,2.1c-10.34-5.97-25.67,1.2-34.22,16.03-3.94,6.83-5.76,14.09-5.56,20.51.23,7.53,3.22,13.92,8.79,17.14,10.34,5.97,25.67-1.2,34.22-16.03,3.57-6.18,5.39-12.7,5.56-18.65.24-8.33-2.76-15.52-8.79-19Z"/></g></g></g></svg>
